<svg xmlns="http://www.w3.org/2000/svg">
  <symbol id="logo-htmlacademy">
    <path d="M30.2 5h-.2l-19.7 2.1v36.2l19.7 11.7 19.7-11.7v-36.2l-19.5-2.1zm17 36.8l-17.2 10.2-17.2-10.2v-14.8l17.1 10.2v1.8l-11.7-7v1.8l11.8 7.1v1.9l-11.8-7v1.8l11.8 7 11.9-7.1v-7.6l5.3-3.2v15.1zm-.1-17l-4.7 2.8-2.2 1.3-10.3-6.1v1.8l8.8 5.3h-.1l-.2.1-1.3.7-7.3-4.3v1.8l5.8 3.4-1.4.9-4.3-2.6v1.8l2.9 1.7-2.9 1.7-17-10.1 17-10.2 17.2 10zm.1-1.8l-17.3-10.2-17.1 10.2v-13.6l17.2-1.8 17.2 1.8v13.6z"/>
  </symbol>

  <symbol id="logo-mobile">
    <g clip-path="url(#clip0_153_267)">
      <path d="M6.07 20.72V18.46C12.7536 17.5423 19.4937 17.0979 26.24 17.13C26.24 17.73 26.24 18.34 26.18 18.95C28.0976 18.099 30.1128 17.4877 32.18 17.13C30.8625 13.722 28.4618 10.8412 25.3471 8.93087C22.2324 7.02052 18.5764 6.1864 14.9414 6.55683C11.3064 6.92727 7.89379 8.48172 5.22852 10.9811C2.56325 13.4804 0.792969 16.7863 0.190001 20.39L6.07 20.72Z" fill="#FDC305"/>
      <path d="M27.24 24.23C26.08 25.51 25.85 25.43 25.85 27.68C25.85 28.59 25.85 32.58 25.85 36.86C28.1425 35.346 30.0245 33.2879 31.328 30.8694C32.6315 28.4509 33.3158 25.7474 33.32 23C33.3068 21.9591 33.1997 20.9216 33 19.9C30.9282 21.1295 28.9967 22.5814 27.24 24.23Z" fill="#FDC305"/>
      <path d="M6.36 25.72C6.36 25.72 2.57 24.28 1.17 23.89C0.787067 23.7693 0.396097 23.6757 0 23.61C0.108395 26.496 0.965588 29.3041 2.48739 31.7586C4.00919 34.2131 6.14326 36.2296 8.68 37.61L6.36 25.72Z" fill="#FDC305"/>
      <path d="M26.29 17.12C26.3307 11.5986 25.862 6.08528 24.89 0.65C24.89 0.65 24.75 -0.64 24 0.41C23.4109 1.65814 23.0067 2.98539 22.8 4.35C18.5418 4.07577 14.2675 4.18957 10.03 4.69C9.24 2 7.85 0.75 7.18 1C6.51 1.25 6.46 4.31 6.46 4.31L6.13 18.41C12.8113 17.506 19.548 17.0749 26.29 17.12Z" fill="#F06351"/>
      <path d="M12.41 14C12.41 13.91 13.41 14.68 13.82 14.92C14.23 15.16 14.43 15.34 14.43 15.51C14.43 15.68 14.16 15.85 13.8 15.85C13.44 15.85 12.89 15.73 12.8 15.58H13.74H14.03C13.4207 15.1294 12.8757 14.5978 12.41 14Z" fill="black"/>
      <path d="M19.89 14.11L18.8 15.44C18.8 15.5 18.63 15.79 18.98 15.74C19.3942 15.6783 19.8023 15.5812 20.2 15.45C20.31 15.45 20.27 15.26 20.09 15.28C19.91 15.3 19.4 15.33 19.09 15.39L19.93 14.13C19.93 14.13 20 14 19.89 14.11Z" fill="black"/>
      <path d="M16.75 20.2C17.2135 19.9958 17.5967 19.6443 17.84 19.2C18.12 18.55 17.84 18.29 17.4 18.2C16.7979 18.0902 16.1765 18.2116 15.66 18.54C15.27 18.9 15.32 19.26 15.61 19.54C15.9613 19.8062 16.3442 20.0279 16.75 20.2Z" fill="black"/>
      <path d="M16.35 21.45C16.2379 21.6785 16.0816 21.8825 15.89 22.05C15.6052 22.2791 15.2551 22.4122 14.89 22.43C14.3638 22.472 13.8406 22.3189 13.42 22C13.2222 21.8808 13.0436 21.7324 12.89 21.56C12.7895 21.4491 12.6669 21.3605 12.53 21.3C12.53 21.3 13.28 25.4 15.1 26.05C16.92 26.7 17.24 25.3 17.3 24.92C17.3601 23.7851 17.0742 22.6588 16.48 21.69C16.46 21.38 16.45 21.58 16.35 21.45Z" fill="#F06351"/>
      <path d="M14.71 22.59C14.2453 22.5247 13.7989 22.3651 13.3982 22.1209C12.9975 21.8767 12.651 21.5531 12.38 21.17C12.3667 21.157 12.3561 21.1414 12.3489 21.1242C12.3417 21.1071 12.338 21.0886 12.338 21.07C12.338 21.0514 12.3417 21.0329 12.3489 21.0158C12.3561 20.9986 12.3667 20.983 12.38 20.97C12.393 20.9567 12.4086 20.9461 12.4258 20.9389C12.4429 20.9317 12.4614 20.928 12.48 20.928C12.4986 20.928 12.5171 20.9317 12.5342 20.9389C12.5514 20.9461 12.567 20.9567 12.58 20.97C13.0848 21.6642 13.843 22.1313 14.69 22.27C15.0217 22.245 15.3426 22.1413 15.6261 21.9674C15.9096 21.7934 16.1475 21.5544 16.32 21.27L16.46 21.08L16.56 21.29C16.56 21.29 16.93 22.05 17.56 22.09C18.19 22.13 18.61 21.68 19.17 20.81C19.183 20.7967 19.1986 20.7861 19.2158 20.7789C19.2329 20.7717 19.2514 20.768 19.27 20.768C19.2886 20.768 19.3071 20.7717 19.3242 20.7789C19.3414 20.7861 19.357 20.7967 19.37 20.81C19.4023 20.8306 19.4255 20.8629 19.4348 20.9C19.4441 20.9372 19.4388 20.9766 19.42 21.01C18.78 22.01 18.15 22.45 17.54 22.41C17.308 22.3763 17.0867 22.2904 16.8927 22.1587C16.6987 22.0271 16.5371 21.8531 16.42 21.65C16.2233 21.9245 15.9676 22.1514 15.6717 22.3141C15.3758 22.4767 15.0471 22.571 14.71 22.59Z" fill="black"/>
      <path d="M26.24 18.92C24.4445 20.5437 22.7512 22.277 21.17 24.11C19.5986 25.9361 17.8238 27.5768 15.88 29C15.66 28.47 14.26 27.49 14.26 27.49C14.26 27.49 11.13 25.35 9.08 23.67C7.97414 22.7373 6.9287 21.7353 5.95 20.67L3.95 20.56C6.84018 24.7655 11.0702 27.8676 15.95 29.36C16.81 29.22 19.22 27.5 21.02 26.1C23.1389 24.2819 25.124 22.3134 26.96 20.21C27.4625 19.621 27.8493 18.9425 28.1 18.21C27 18.6 26.24 18.92 26.24 18.92Z" fill="#F06351"/>
    </g>
    <defs>
      <clipPath id="clip0_153_267">
        <rect width="33.32" height="37.61" fill="white"/>
      </clipPath>
    </defs>
  </symbol>

  <symbol id="logo-tablet">
    <g fill="none">
      <path d="M51.5819 19.854C50.0969 16.265 47.7053 13.1312 44.6456 10.7649C41.5858 8.39869 37.9646 6.88262 34.143 6.36781C30.3214 5.85301 26.4328 6.35745 22.8646 7.83086C19.2965 9.30427 16.1735 11.6952 13.8068 14.7654C11.4402 17.8355 9.9125 21.4777 9.37609 25.329C8.83968 29.1802 9.31325 33.106 10.7496 36.7151C12.186 40.3242 14.535 43.4906 17.5625 45.8987C20.59 48.3068 24.1903 49.8726 28.0046 50.4399C27.505 48.6238 26.9967 46.6166 26.5488 44.4878C27.8519 45.3405 29.2235 46.0816 30.6492 46.7035C30.6492 46.7035 30.7526 48.5804 30.8904 50.6745C32.4308 50.7013 33.9698 50.5644 35.4818 50.2661C35.4427 50.0477 35.4427 49.8241 35.4818 49.6057C35.7316 47.9808 36.4208 45.0526 36.5586 43.167C37.552 42.2297 38.3948 41.1421 39.0567 39.9434L39.005 40.3257C38.5312 44.0273 37.5406 47.9808 36.9376 49.0757C36.7424 49.4381 36.5021 49.7739 36.2226 50.0749C39.3408 49.3371 42.2626 47.924 44.7855 45.9336C47.3083 43.9433 49.3718 41.4233 50.8329 38.5484C52.2941 35.6735 53.1179 32.5124 53.2472 29.2843C53.3765 26.0563 52.8083 22.8385 51.5819 19.854ZM50.3156 23.1472C49.9366 23.5208 49.1527 23.7728 49.0235 22.6432C48.8942 21.5136 48.8598 20.7229 48.8598 20.7229C48.8598 20.7229 47.1972 17.7425 46.577 17.7078C45.9568 17.673 41.5549 20.7229 40.3919 22.0524C39.3841 23.1733 39.1859 23.0951 39.1859 25.0675C39.1859 26.5534 39.3755 32.1666 39.2721 36.459L32.2514 38.3446C30.0448 38.9834 27.8007 39.4825 25.5323 39.8391L24.6709 34.7733H24.5503L22.3364 23.3297C22.3364 23.3297 19.0543 22.0784 17.8483 21.7396C17.2821 21.4897 16.6568 21.4084 16.0462 21.5054C15.4356 21.6024 14.8653 21.8736 14.4026 22.287C13.9306 22.7039 13.5531 23.2185 13.296 23.7958C13.0388 24.373 12.908 24.9994 12.9124 25.6323C13.0945 26.0362 13.2331 26.4585 13.3258 26.8922C13.3689 27.3093 12.2921 27.2659 11.603 27.2659C10.9138 27.2659 10.8105 26.0146 11.3532 24.5462C11.7766 23.417 12.3013 22.3292 12.921 21.2964C13.387 20.3738 13.9881 19.5273 14.7041 18.7852C14.7041 18.7852 14.8247 18.4898 15.7809 18.5767C16.7371 18.6636 22.0521 18.9503 22.0521 18.9503L22.0952 16.9779C27.8722 16.1733 33.6987 15.7842 39.5305 15.8135C39.5305 16.3436 39.5305 16.8736 39.5305 17.4037C41.7394 16.3869 44.118 15.7974 46.5425 15.6658C46.6723 15.6625 46.8008 15.6917 46.9166 15.7509C47.0323 15.81 47.1317 15.8973 47.2058 16.0047C47.4987 16.3783 49.2819 18.6115 49.4886 18.933C50.0677 19.7677 50.5942 20.6383 51.065 21.5397C50.9037 22.1104 50.6505 22.6505 50.3156 23.1385V23.1472Z" fill="#FDC305"/>
      <path d="M48.6363 17.8294C49.0411 18.3508 49.3943 18.8113 49.4977 18.9503C50.0768 19.7851 50.6033 20.6557 51.0741 21.5571C50.9102 22.1091 50.6601 22.6312 50.3333 23.1038C49.9543 23.4774 49.1704 23.7294 49.0411 22.5998C48.9119 21.4702 48.8602 20.7229 48.8602 20.7229C48.8602 20.7229 47.1977 17.7425 46.5775 17.7078C45.9572 17.673 41.5553 20.7229 40.3924 22.0524C39.3845 23.1733 39.1864 23.0951 39.1864 25.0675C39.1864 26.3709 39.3328 30.8458 39.2984 34.8254C40.8576 34.9992 43.149 35.4337 43.8381 36.459C43.8381 36.459 43.5883 30.2202 50.5659 33.4873C50.5659 33.4873 50.8071 24.9806 60.4378 27.1616C57.1639 23.2844 53.1505 20.1107 48.6363 17.8294Z" fill="#F06351"/>
      <path d="M39.5654 15.8135C39.6004 10.9987 39.1967 6.1907 38.3594 1.45035C38.3594 1.45035 38.2302 0.320754 37.61 1.24181C37.0982 2.34291 36.7499 3.51402 36.5762 4.71747C32.8938 4.47914 29.1975 4.57802 25.5327 5.0129C24.8264 2.62338 23.6204 1.53724 23.0432 1.82398C22.466 2.11072 22.3971 4.67403 22.3971 4.67403L22.1129 16.9779C27.8956 16.1725 33.7279 15.7834 39.5654 15.8135Z" fill="#F06351"/>
      <path d="M39.0651 39.9434C39.1771 39.0136 39.2374 37.7798 39.2718 36.4156L32.2515 38.3011C30.0459 38.9546 27.8019 39.4682 25.5327 39.8391L26.4889 44.1837C26.4889 44.2793 26.4889 44.3748 26.5492 44.4704C27.8522 45.3231 29.2237 46.0642 30.6494 46.6861C32.7328 45.6815 34.7171 44.4799 36.5757 43.0975V43.1497C37.5646 42.217 38.4044 41.1354 39.0651 39.9434Z" fill="#E55645"/>
      <path d="M27.5657 13.0938C27.5226 13.0069 28.4271 13.6847 28.7803 13.8932C29.1334 14.1018 29.3057 14.2582 29.3057 14.4059C29.3057 14.5536 29.0817 14.7013 28.7716 14.7013C28.4615 14.7013 27.9792 14.5971 27.9103 14.4754C27.8413 14.3538 28.4271 14.4754 28.72 14.4754H28.9698C28.4394 14.084 27.9667 13.6189 27.5657 13.0938Z" fill="black"/>
      <path d="M34.0264 13.1894C34.0264 13.1894 33.165 14.3016 33.0875 14.3538C33.0099 14.4059 32.941 14.6492 33.2511 14.6057C33.6071 14.5521 33.9585 14.4708 34.302 14.3624C34.3968 14.3103 34.3623 14.1887 34.1986 14.206C34.035 14.2234 33.6129 14.2495 33.3373 14.3016L34.0694 13.1981C34.0694 13.1981 34.0953 13.0938 34.0264 13.1894Z" fill="black"/>
      <path d="M31.3215 18.4985C31.7208 18.321 32.0508 18.0156 32.2604 17.6296C32.5016 17.0561 32.2604 16.8389 31.8814 16.7607C31.36 16.6647 30.8218 16.7702 30.374 17.0561C30.038 17.3776 30.0811 17.6904 30.374 17.925C30.6649 18.1552 30.9832 18.3478 31.3215 18.4985Z" fill="black"/>
      <path d="M31.0113 19.5933C30.9124 19.7904 30.778 19.9672 30.615 20.1147C30.3697 20.3138 30.0681 20.4294 29.7536 20.4449C29.2794 20.4918 28.8052 20.3552 28.4271 20.0625C28.2535 19.9601 28.0989 19.8278 27.9706 19.6715C27.8844 19.5769 27.7785 19.5027 27.6605 19.4543C27.6605 19.4543 28.3065 23.0255 29.8742 23.599C31.4419 24.1725 31.7348 22.9387 31.7779 22.6085C31.8304 21.6196 31.5841 20.6379 31.0715 19.7932C31.0715 19.5325 31.0543 19.7063 31.0113 19.5933Z" fill="#F06351"/>
      <path d="M29.5469 20.5839C29.1438 20.5254 28.7566 20.3852 28.4087 20.1716C28.0608 19.9581 27.7594 19.6756 27.5226 19.3413C27.5015 19.3174 27.4897 19.2865 27.4897 19.2544C27.4897 19.2224 27.5015 19.1915 27.5226 19.1676C27.5339 19.156 27.5473 19.1468 27.5621 19.1405C27.5769 19.1343 27.5927 19.131 27.6088 19.131C27.6248 19.131 27.6407 19.1343 27.6555 19.1405C27.6703 19.1468 27.6837 19.156 27.6949 19.1676C27.9081 19.4692 28.1785 19.7252 28.4905 19.9206C28.8025 20.116 29.1499 20.2469 29.5124 20.3058C29.7993 20.2841 30.0769 20.194 30.3225 20.0429C30.5681 19.8919 30.7746 19.6842 30.9251 19.4369L31.0457 19.2718L31.1319 19.463C31.1319 19.463 31.4592 20.1234 31.9932 20.1581C32.5273 20.1929 32.9063 19.7932 33.3973 19.0372C33.4156 19.0096 33.444 18.9904 33.4763 18.9838C33.5086 18.9773 33.5422 18.984 33.5696 19.0025C33.597 19.0209 33.616 19.0496 33.6225 19.0822C33.629 19.1147 33.6223 19.1486 33.604 19.1762C33.0298 20.0278 32.4871 20.4362 31.976 20.4014C31.7785 20.375 31.5893 20.3043 31.4224 20.1946C31.2554 20.0848 31.115 19.9388 31.0113 19.7671C30.8427 20.0045 30.6238 20.201 30.3705 20.3423C30.1172 20.4836 29.8358 20.5661 29.5469 20.5839Z" fill="black"/>
      <path d="M31.2353 32.2795C33.0192 32.2795 34.4655 30.8207 34.4655 29.0211C34.4655 27.2215 33.0192 25.7626 31.2353 25.7626C29.4513 25.7626 28.0051 27.2215 28.0051 29.0211C28.0051 30.8207 29.4513 32.2795 31.2353 32.2795Z" fill="#FDC305"/>
      <path d="M35.5163 26.3709L32.8201 27.5092L33.8107 22.6172L27.3503 31.0978L30.0465 29.9595L29.0559 34.8602L35.5163 26.3709ZM29.1506 29.6988L32.734 24.998L32.0363 28.4737L33.7591 27.7611L30.1498 32.4707L30.8476 28.995L29.1506 29.6988Z" fill="#111111"/>
      <path d="M27.9447 28.4215C28.4776 28.4215 28.9095 27.9858 28.9095 27.4483C28.9095 26.9109 28.4776 26.4751 27.9447 26.4751C27.4119 26.4751 26.98 26.9109 26.98 27.4483C26.98 27.9858 27.4119 28.4215 27.9447 28.4215Z" fill="#111111"/>
      <path d="M33.5612 31.9493C33.9371 31.9493 34.2417 31.642 34.2417 31.2629C34.2417 30.8838 33.9371 30.5764 33.5612 30.5764C33.1854 30.5764 32.8807 30.8838 32.8807 31.2629C32.8807 31.642 33.1854 31.9493 33.5612 31.9493Z" fill="#111111"/>
      <path d="M34.3882 30.0638C34.5547 30.0638 34.6897 29.9276 34.6897 29.7597C34.6897 29.5917 34.5547 29.4555 34.3882 29.4555C34.2217 29.4555 34.0867 29.5917 34.0867 29.7597C34.0867 29.9276 34.2217 30.0638 34.3882 30.0638Z" fill="#111111"/>
      <path d="M39.5224 17.3863C37.9674 18.8002 36.5029 20.3123 35.1377 21.9133C33.7778 23.5028 32.2433 24.9312 30.5635 26.171C30.374 25.7105 29.1594 24.8503 29.1594 24.8503C29.1594 24.8503 26.4545 22.9821 24.6799 21.5136C23.7207 20.7077 22.8169 19.8368 21.9751 18.9069L20.2522 18.8113C22.7392 22.4757 26.3826 25.183 30.5893 26.4925C31.3302 26.3709 33.4148 24.8677 34.974 23.6425C36.8187 22.0601 38.5461 20.3437 40.1426 18.5072C40.5717 17.9928 40.9044 17.4039 41.1246 16.7693C40.1426 17.0995 39.5224 17.3863 39.5224 17.3863Z" fill="#F06351"/>
      <path d="M22.3368 23.3297C22.3368 23.3297 19.0548 22.0784 17.8488 21.7396C17.2825 21.4897 16.6572 21.4084 16.0466 21.5054C15.4361 21.6024 14.8658 21.8736 14.4031 22.287C13.931 22.7039 13.5536 23.2185 13.2964 23.7958C13.0393 24.373 12.9084 24.9994 12.9128 25.6323C13.0949 26.0362 13.2335 26.4585 13.3263 26.8922C13.3694 27.3093 12.2926 27.2659 11.6034 27.2659C10.9143 27.2659 10.8109 26.0146 11.3536 24.5462C11.777 23.417 12.3018 22.3292 12.9214 21.2964C8.22664 23.7641 0 29.4642 0 29.4642C2.35316 29.3211 4.71429 29.3909 7.0551 29.6728C11.5776 30.1333 11.3622 33.7306 11.3622 33.7306C12.9529 33.2883 14.574 32.9659 16.2121 32.7661C18.0383 32.6445 18.1675 34.6082 18.1675 34.6082L18.6241 37.9622C19.3173 37.2057 20.0819 36.5189 20.9069 35.9116C21.9703 35.0529 23.3243 34.6476 24.6799 34.782L22.3368 23.3297Z" fill="#F06351"/>
    </g>
  </symbol>

  <symbol id="logo-desktop">
    <g fill="none">
      <path d="M59.8825 23.8063C58.1585 19.7092 55.3821 16.1318 51.83 13.4305C48.2778 10.7293 44.074 8.99857 39.6374 8.41088C35.2008 7.82319 30.6864 8.39905 26.5441 10.0811C22.4017 11.7631 18.7762 14.4925 16.0287 17.9973C13.2812 21.5021 11.5077 25.6599 10.885 30.0564C10.2622 34.4529 10.812 38.9344 12.4795 43.0545C14.147 47.1745 16.874 50.7892 20.3887 53.5382C23.9034 56.2872 28.083 58.0746 32.5111 58.7223C31.9311 56.6491 31.3411 54.3578 30.8211 51.9275C32.3339 52.9009 33.9262 53.747 35.5813 54.457C35.5813 54.457 35.7013 56.5995 35.8613 58.9901C37.6496 59.0207 39.4362 58.8644 41.1916 58.5239C41.1462 58.2746 41.1462 58.0193 41.1916 57.77C41.4816 55.9151 42.2816 52.5723 42.4416 50.4198C43.595 49.3498 44.5734 48.1082 45.3418 46.7397L45.2818 47.1762C44.7317 51.4018 43.5817 55.9151 42.8817 57.1649C42.655 57.5786 42.3761 57.962 42.0516 58.3056C45.6716 57.4633 49.0636 55.8502 51.9924 53.5781C54.9212 51.3059 57.3168 48.4292 59.013 45.1473C60.7093 41.8653 61.6656 38.2568 61.8158 34.5717C61.9659 30.8867 61.3062 27.2133 59.8825 23.8063ZM58.4124 27.5657C57.9724 27.9923 57.0624 28.2799 56.9123 26.9904C56.7623 25.7009 56.7223 24.7983 56.7223 24.7983C56.7223 24.7983 54.7922 21.3959 54.0722 21.3563C53.3522 21.3166 48.2419 24.7983 46.8918 26.3159C45.7218 27.5955 45.4918 27.5062 45.4918 29.7579C45.4918 31.4541 45.7118 37.862 45.5918 42.7621L37.4414 44.9146C34.8796 45.6438 32.2744 46.2137 29.641 46.6207L28.6409 40.8378H28.5009L25.9308 27.774C25.9308 27.774 22.1206 26.3457 20.7206 25.9588C20.0632 25.6735 19.3372 25.5808 18.6284 25.6915C17.9196 25.8023 17.2575 26.1118 16.7204 26.5837C16.1723 27.0597 15.7342 27.6471 15.4356 28.3061C15.1371 28.9651 14.9852 29.6802 14.9903 30.4027C15.2017 30.8637 15.3626 31.3459 15.4703 31.841C15.5203 32.3171 14.2702 32.2675 13.4702 32.2675C12.6702 32.2675 12.5502 30.8391 13.1802 29.1627C13.6717 27.8737 14.2809 26.632 15.0003 25.4529C15.5413 24.3997 16.2392 23.4333 17.0704 22.5862C17.0704 22.5862 17.2104 22.249 18.3204 22.3482C19.4305 22.4474 25.6008 22.7747 25.6008 22.7747L25.6508 20.523C32.3575 19.6045 39.1216 19.1603 45.8918 19.1938C45.8918 19.7989 45.8918 20.404 45.8918 21.0091C48.4562 19.8483 51.2175 19.1754 54.0322 19.0252C54.1828 19.0214 54.332 19.0548 54.4664 19.1223C54.6008 19.1898 54.7162 19.2894 54.8022 19.4121C55.1423 19.8386 57.2124 22.3879 57.4524 22.7549C58.1246 23.7078 58.7359 24.7017 59.2825 25.7307C59.0951 26.3822 58.8012 26.9988 58.4124 27.5558V27.5657Z" fill="#FDC305"/>
      <path d="M56.4628 21.4951C56.9329 22.0903 57.3429 22.616 57.4629 22.7747C58.1351 23.7277 58.7464 24.7215 59.293 25.7505C59.1027 26.3806 58.8124 26.9767 58.4329 27.5161C57.9929 27.9427 57.0829 28.2303 56.9329 26.9408C56.7829 25.6513 56.7229 24.7983 56.7229 24.7983C56.7229 24.7983 54.7928 21.3959 54.0727 21.3563C53.3527 21.3166 48.2424 24.7983 46.8924 26.3159C45.7223 27.5955 45.4923 27.5062 45.4923 29.7579C45.4923 31.2458 45.6623 36.3542 45.6223 40.8973C47.4324 41.0957 50.0925 41.5916 50.8926 42.7621C50.8926 42.7621 50.6026 35.64 58.703 39.3697C58.703 39.3697 58.983 29.6587 70.1635 32.1485C66.3628 27.7223 61.7035 24.0994 56.4628 21.4951Z" fill="#F06351"/>
      <path d="M45.9323 19.1938C45.9729 13.6973 45.5043 8.2087 44.5322 2.79724C44.5322 2.79724 44.3822 1.50773 43.6622 2.55918C43.068 3.81617 42.6636 5.15308 42.4621 6.5269C38.1871 6.25483 33.896 6.36771 29.6415 6.86415C28.8214 4.13635 27.4214 2.89643 26.7513 3.22377C26.0813 3.55111 26.0013 6.4773 26.0013 6.4773L25.6713 20.523C32.3846 19.6036 39.1554 19.1594 45.9323 19.1938Z" fill="#F06351"/>
      <path d="M45.3515 46.7397C45.4815 45.6784 45.5515 44.2698 45.5915 42.7125L37.4415 44.865C34.8809 45.611 32.2758 46.1974 29.6415 46.6207L30.7515 51.5804C30.7515 51.6895 30.7515 51.7986 30.8215 51.9077C32.3342 52.8811 33.9265 53.7272 35.5815 54.4371C38.0002 53.2903 40.3038 51.9186 42.4615 50.3404V50.4C43.6096 49.3352 44.5845 48.1005 45.3515 46.7397Z" fill="#E55645"/>
      <path d="M32.0016 16.0891C31.9516 15.9899 33.0016 16.7636 33.4116 17.0017C33.8216 17.2397 34.0216 17.4183 34.0216 17.5869C34.0216 17.7556 33.7616 17.9242 33.4016 17.9242C33.0416 17.9242 32.4816 17.8051 32.4016 17.6663C32.3216 17.5274 33.0016 17.6663 33.3416 17.6663H33.6316C33.0159 17.2195 32.4672 16.6885 32.0016 16.0891Z" fill="black"/>
      <path d="M39.502 16.1982C39.502 16.1982 38.502 17.4679 38.412 17.5274C38.322 17.5869 38.2419 17.8647 38.6019 17.8151C39.0152 17.7539 39.4231 17.661 39.8219 17.5373C39.9319 17.4778 39.892 17.3389 39.702 17.3588C39.512 17.3786 39.022 17.4084 38.702 17.4679L39.5519 16.2081C39.5519 16.2081 39.582 16.0891 39.502 16.1982Z" fill="black"/>
      <path d="M36.3617 22.2589C36.8253 22.0563 37.2084 21.7077 37.4517 21.267C37.7317 20.6123 37.4517 20.3643 37.0117 20.275C36.4064 20.1655 35.7817 20.2859 35.2617 20.6123C34.8717 20.9793 34.9217 21.3364 35.2617 21.6042C35.5995 21.867 35.9691 22.0869 36.3617 22.2589Z" fill="black"/>
      <path d="M36.0016 23.5087C35.8868 23.7337 35.7308 23.9355 35.5416 24.1039C35.2568 24.3312 34.9067 24.4631 34.5416 24.4808C33.991 24.5344 33.4405 24.3784 33.0016 24.0444C32.8 23.9274 32.6206 23.7764 32.4716 23.598C32.3715 23.49 32.2486 23.4053 32.1116 23.35C32.1116 23.35 32.8616 27.4269 34.6816 28.0815C36.5016 28.7362 36.8416 27.3277 36.8916 26.9507C36.9525 25.8218 36.6666 24.7011 36.0716 23.7369C36.0716 23.4393 36.0516 23.6377 36.0016 23.5087Z" fill="#F06351"/>
      <path d="M34.3015 24.6395C33.8335 24.5728 33.384 24.4127 32.9801 24.1689C32.5763 23.9251 32.2263 23.6027 31.9515 23.2211C31.9269 23.1938 31.9133 23.1585 31.9133 23.1219C31.9133 23.0853 31.9269 23.05 31.9515 23.0227C31.9646 23.0095 31.9801 22.999 31.9973 22.9919C32.0145 22.9847 32.0329 22.981 32.0515 22.981C32.0702 22.981 32.0886 22.9847 32.1058 22.9919C32.1229 22.999 32.1385 23.0095 32.1515 23.0227C32.399 23.3671 32.7129 23.6593 33.0751 23.8823C33.4374 24.1054 33.8406 24.2549 34.2615 24.3221C34.5945 24.2973 34.9168 24.1945 35.2019 24.022C35.487 23.8496 35.7268 23.6125 35.9015 23.3302L36.0415 23.1417L36.1415 23.36C36.1415 23.36 36.5215 24.1138 37.1415 24.1535C37.7615 24.1932 38.2015 23.7369 38.7715 22.8739C38.7927 22.8423 38.8257 22.8204 38.8632 22.813C38.9007 22.8055 38.9397 22.8132 38.9715 22.8342C39.0034 22.8553 39.0254 22.888 39.0329 22.9252C39.0404 22.9624 39.0327 23.001 39.0115 23.0326C38.3449 24.0047 37.7149 24.4709 37.1215 24.4312C36.8922 24.4011 36.6726 24.3204 36.4788 24.1951C36.285 24.0698 36.1219 23.9031 36.0015 23.7071C35.8059 23.9781 35.5518 24.2025 35.2577 24.3638C34.9636 24.5251 34.6369 24.6193 34.3015 24.6395Z" fill="black"/>
      <path d="M36.2616 37.9909C38.3327 37.9909 40.0116 36.3255 40.0116 34.2712C40.0116 32.2168 38.3327 30.5514 36.2616 30.5514C34.1905 30.5514 32.5116 32.2168 32.5116 34.2712C32.5116 36.3255 34.1905 37.9909 36.2616 37.9909Z" fill="#FDC305"/>
      <path d="M41.2316 31.2458L38.1016 32.5452L39.2516 26.9607L31.7516 36.6419L34.8816 35.3425L33.7316 40.937L41.2316 31.2458ZM33.8416 35.0449L38.0016 29.6786L37.1916 33.6463L39.1916 32.8329L35.0016 38.2092L35.8116 34.2414L33.8416 35.0449Z" fill="#111111"/>
      <path d="M32.4415 33.5868C33.0601 33.5868 33.5615 33.0894 33.5615 32.4758C33.5615 31.8622 33.0601 31.3648 32.4415 31.3648C31.823 31.3648 31.3215 31.8622 31.3215 32.4758C31.3215 33.0894 31.823 33.5868 32.4415 33.5868Z" fill="#111111"/>
      <path d="M38.9619 37.614C39.3982 37.614 39.7519 37.2631 39.7519 36.8304C39.7519 36.3976 39.3982 36.0467 38.9619 36.0467C38.5256 36.0467 38.1719 36.3976 38.1719 36.8304C38.1719 37.2631 38.5256 37.614 38.9619 37.614Z" fill="#111111"/>
      <path d="M39.9219 35.4615C40.1152 35.4615 40.2719 35.3061 40.2719 35.1143C40.2719 34.9226 40.1152 34.7672 39.9219 34.7672C39.7286 34.7672 39.5719 34.9226 39.5719 35.1143C39.5719 35.3061 39.7286 35.4615 39.9219 35.4615Z" fill="#111111"/>
      <path d="M45.8822 20.9892C44.077 22.6034 42.3768 24.3295 40.792 26.1572C39.2133 27.9717 37.4318 29.6023 35.4817 31.0177C35.2617 30.4919 33.8516 29.5099 33.8516 29.5099C33.8516 29.5099 30.7115 27.3773 28.6514 25.7009C27.5377 24.7809 26.4886 23.7867 25.5112 22.7251L23.5111 22.616C26.3983 26.7991 30.628 29.8897 35.5117 31.3847C36.3717 31.2458 38.7919 29.5298 40.602 28.1311C42.7434 26.3247 44.7489 24.3654 46.6022 22.2688C47.1004 21.6816 47.4867 21.0094 47.7423 20.285C46.6023 20.6619 45.8822 20.9892 45.8822 20.9892Z" fill="#F06351"/>
      <path d="M65.2227 3.47176L56.7627 12.8356L55.5427 10.8616L63.6927 0L65.2227 3.47176Z" fill="#FDC305"/>
      <path d="M62.6531 17.1207L68.1931 13.0439L67.4131 9.33406L62.0131 14.1052L62.6531 17.1207Z" fill="#FDC305"/>
      <path d="M59.923 48.9716L66.053 52.1259L69.063 49.8048L62.373 47.077L59.923 48.9716Z" fill="#FDC305"/>
      <path d="M1.94995 5.92182L5.01995 2.58894L14.31 11.5163L13.09 13.7779L1.94995 5.92182Z" fill="#FDC305"/>
      <path d="M7.38003 16.1486L2.68003 13.0439L0.280029 16.8826L5.43003 19.2633L7.38003 16.1486Z" fill="#FDC305"/>
      <path d="M13.91 52.1259L9.35999 55.4489L12.16 59L16.18 55.0124L13.91 52.1259Z" fill="#FDC305"/>
      <path d="M25.9313 27.774C25.9313 27.774 22.1211 26.3457 20.721 25.9588C20.0636 25.6735 19.3377 25.5808 18.6289 25.6915C17.9201 25.8023 17.258 26.1118 16.7208 26.5837C16.1728 27.0597 15.7346 27.6471 15.4361 28.3061C15.1375 28.9651 14.9856 29.6802 14.9907 30.4027C15.2021 30.8637 15.3631 31.3459 15.4708 31.841C15.5208 32.3171 14.2707 32.2675 13.4707 32.2675C12.6706 32.2675 12.5506 30.8391 13.1807 29.1627C13.6722 27.8737 14.2814 26.632 15.0007 25.4529C9.55047 28.27 0 34.7771 0 34.7771C2.73182 34.6137 5.47292 34.6933 8.1904 35.0151C13.4407 35.5409 13.1907 39.6474 13.1907 39.6474C15.0373 39.1425 16.9192 38.7745 18.8209 38.5464C20.941 38.4075 21.091 40.6493 21.091 40.6493L21.6211 44.4781C22.4259 43.6145 23.3134 42.8305 24.2712 42.1372C25.5057 41.157 27.0776 40.6942 28.6514 40.8477L25.9313 27.774Z" fill="#F06351"/>
    </g>
  </symbol>

  <symbol id="logo-text">
    <g width="101" height="18" fill="none">
      <g clip-path="url(#clip0_135_3354)">
        <path d="M1.26449 16.5385C0.36955 15.2762 -0.0747041 13.7627 1.02073e-05 12.2308V5.84615C-0.108365 4.29774 0.308071 2.75746 1.18546 1.46154C2.05478 0.461538 3.39829 0 5.37403 0C7.34978 0 8.61425 0.461538 9.40455 1.30769C10.2626 2.37941 10.6846 3.72136 10.59 5.07692V6.61539H6.71754V4.84615C6.74881 4.32289 6.66808 3.799 6.48045 3.30769C6.38016 3.10938 6.2212 2.9448 6.02403 2.83513C5.82686 2.72547 5.60049 2.67572 5.37403 2.69231C4.82082 2.69231 4.42568 2.84615 4.26762 3.23077C4.08883 3.77733 4.00862 4.34988 4.03053 4.92308V13.1538C3.98879 13.71 4.0978 14.267 4.34665 14.7692C4.5047 15.1538 4.89985 15.3077 5.45306 15.3077C6.00627 15.3077 6.32239 15.1538 6.48045 14.7692C6.66013 14.2494 6.74049 13.7019 6.71754 13.1538V11.3077H10.59V12.8462C10.6704 14.2238 10.2508 15.5852 9.40455 16.6923C8.61425 17.6154 7.27075 18.0769 5.37403 18.0769C3.47732 18 2.05478 17.5385 1.26449 16.5385Z" fill="#111111"/>
        <path d="M15.2527 0.23077H19.7574L23.0767 17.7692H19.4413L18.8091 14.0769H16.2011L15.5689 17.7692H11.8545L15.2527 0.23077ZM18.493 11.7692L17.5446 4.92308L16.5963 11.7692H18.493Z" fill="#111111"/>
        <path d="M25.8427 3.15385H23.1557V0.23077H32.5602V3.07692H29.8732V17.7692H25.8427V3.15385Z" fill="#111111"/>
        <path d="M39.752 0.23077H46.7066V2.07692H42.2019V7.84615H45.8372V9.61539H42.2019V16.0769H46.7066V17.8462H39.6729V0.23077H39.752Z" fill="#111111"/>
        <path d="M48.7613 0.23077H50.5L55.6369 11.8462V0.23077H57.6917V17.7692H56.1111L50.8951 5.76923V17.7692H48.7613V0.23077Z" fill="#111111"/>
        <path d="M60.0626 0.23077H67.0172V2.07692H62.5125V7.84615H66.1479V9.61539H62.5125V16.0769H67.0172V17.8462H60.0626V0.23077Z" fill="#111111"/>
        <path d="M69.072 0.23077H72.7074C74.1375 0.134618 75.5587 0.514353 76.7379 1.30769C77.6072 2 78.0024 3.23077 78.0024 4.84616C78.0024 7.07692 77.2911 8.46154 75.7895 8.92308L78.3185 17.6923H75.8686L73.4977 9.46154H71.5219V17.6923H68.993V0.23077H69.072ZM72.5493 7.76923C73.364 7.83458 74.1761 7.61652 74.8412 7.15385C75.3154 6.76923 75.5524 6 75.5524 4.84616C75.5743 4.27296 75.4941 3.7004 75.3154 3.15385C75.1375 2.76166 74.832 2.4373 74.446 2.23077C73.9017 1.98934 73.3042 1.8836 72.7074 1.92308H71.601V7.69231H72.5493V7.76923Z" fill="#111111"/>
        <path d="M81.1635 16.4615C80.342 15.1166 79.9564 13.5617 80.0571 12V6.15384C80.0376 5.03911 80.1705 3.9268 80.4522 2.84615C80.7167 2.03863 81.2437 1.33668 81.9538 0.846152C82.8362 0.337748 83.8542 0.0967294 84.8779 0.153844C86.5375 0.153844 87.723 0.53846 88.4343 1.38461C89.2524 2.50191 89.6438 3.86237 89.5407 5.23077V5.84615H87.1698V5.30769C87.1734 4.66346 87.1205 4.0201 87.0117 3.38461C86.9451 2.98303 86.7178 2.62348 86.3795 2.38461C85.9353 2.10082 85.4081 1.96579 84.8779 2C84.3113 1.96466 83.7504 2.12843 83.2973 2.46154C83.1114 2.61401 82.9595 2.80181 82.8508 3.01344C82.742 3.22507 82.6789 3.45608 82.6651 3.69231C82.5609 4.37999 82.5081 5.07411 82.507 5.76923V12.3077C82.4488 13.3038 82.6105 14.3006 82.9812 15.2308C83.2973 15.8462 83.9296 16.0769 84.8779 16.0769C85.2524 16.1223 85.6322 16.0589 85.9697 15.8947C86.3072 15.7304 86.5873 15.4727 86.7746 15.1538C87.1922 14.1811 87.3812 13.1299 87.3278 12.0769V10.8462H85.036V9.07692H89.6197V17.7692H88.0391L87.802 15.7692C87.5948 16.4395 87.1634 17.0231 86.5763 17.4273C85.9892 17.8315 85.2801 18.0331 84.5618 18C83.9088 18.0374 83.2565 17.9164 82.6633 17.6479C82.0702 17.3794 81.5549 16.9717 81.1635 16.4615Z" fill="#111111"/>
        <path d="M94.6776 11.6154L90.8052 0.30769H93.1761L95.9421 8.76923L98.6291 0.30769H101L97.1275 11.6154V17.7692H94.7566V11.6154H94.6776Z" fill="#111111"/>
      </g>
      <defs>
        <clipPath id="clip0_135_3354">
          <rect width="101" height="18" fill="white"/>
        </clipPath>
      </defs>
    </g>
  </symbol>

  <symbol id="vk-icon">
    <g stroke="none">
      <path d="M0.0700912 1.99266C0.0700912 1.37082 0.493211 1.03552 1.33945 0.986745L4.60039 1.00503C4.81925 1.00503 4.96515 1.09648 5.03811 1.27938C5.37368 2.19385 5.74938 2.98334 6.16521 3.64785C6.58103 4.31237 7.12453 5.07747 7.79568 5.94317C7.85404 6.05291 7.94888 6.10778 8.08019 6.10778C8.18233 6.10778 8.26257 6.0651 8.32093 5.97975L8.38659 5.77857L8.40848 2.6145C8.40848 2.39503 8.34647 2.24871 8.22245 2.17556C8.09843 2.1024 7.86863 2.04753 7.53305 2.01095C7.27043 1.97437 7.13912 1.84025 7.13912 1.60859C7.13912 1.55981 7.14641 1.52323 7.161 1.49885C7.4674 0.706308 8.34282 0.310037 9.78726 0.310037L11.0129 0.291748C11.5673 0.291748 12.0269 0.407581 12.3916 0.639247C12.7564 0.870912 12.9388 1.2367 12.9388 1.73661V5.88831C13.0409 5.94927 13.1357 5.97975 13.2233 5.97975C13.4421 5.97975 13.6318 5.87002 13.7923 5.65054C15.3973 3.77283 16.2654 2.51696 16.3967 1.88293C16.3967 1.87073 16.4113 1.84025 16.4405 1.79148C16.5426 1.60859 16.7104 1.45008 16.9438 1.31595C17.1773 1.18183 17.3815 1.09039 17.5566 1.04161C17.615 1.01723 17.6806 1.00503 17.7536 1.00503H21.1459L21.3647 1.02332C21.6565 1.02332 21.8827 1.13916 22.0432 1.37082C22.1015 1.44398 22.1416 1.52323 22.1635 1.60859C22.1854 1.69394 22.2 1.77929 22.2073 1.86464C22.2146 1.94999 22.2182 1.99876 22.2182 2.01095V2.13898C22.1161 2.63889 21.8571 3.17233 21.4413 3.7393C21.0255 4.30627 20.4966 4.91897 19.8546 5.57739C19.2126 6.2358 18.8114 6.66865 18.6509 6.87593C18.5196 7.02225 18.4539 7.15637 18.4539 7.2783C18.4539 7.37584 18.5123 7.48558 18.629 7.60751L21.8243 10.9728C21.9994 11.1678 22.0869 11.3812 22.0869 11.6129C22.0869 11.8933 21.9556 12.125 21.693 12.3079C21.4304 12.4908 21.1167 12.5944 20.7519 12.6188L20.3799 12.6371H17.0533C17.0387 12.6371 17.0095 12.6401 16.9657 12.6462C16.9219 12.6523 16.8928 12.6554 16.8782 12.6554C16.5572 12.6554 16.2581 12.5396 15.9809 12.3079C15.8787 12.2103 15.193 11.491 13.9236 10.1497C13.8507 10.0644 13.7485 9.98513 13.6172 9.91197C13.5589 10.1071 13.4823 10.3875 13.3874 10.7533C13.2926 11.1191 13.2233 11.3812 13.1795 11.5397L13.1139 11.8507C12.968 12.2774 12.6616 12.5335 12.1947 12.6188L11.8883 12.6371H9.74349C8.53249 12.6371 7.32514 12.1738 6.12144 11.2471C4.91773 10.3204 3.8344 9.12248 2.87144 7.65323C1.90848 6.18398 1.01117 4.47392 0.179519 2.52306C0.106567 2.36455 0.0700912 2.18775 0.0700912 1.99266ZM13.2233 6.72962C12.9169 6.72962 12.6397 6.65951 12.3916 6.51929C12.1436 6.37907 12.0196 6.18703 12.0196 5.94317V1.73661C12.0196 1.49275 11.9466 1.319 11.8007 1.21536C11.6548 1.11172 11.3995 1.0599 11.0347 1.0599L9.78726 1.09648C9.15988 1.09648 8.68569 1.18793 8.3647 1.37082C9.00668 1.62687 9.32767 2.04143 9.32767 2.6145V5.83344C9.29849 6.13826 9.15258 6.39126 8.88996 6.59245C8.62733 6.79363 8.33552 6.89422 8.01454 6.89422C7.57683 6.89422 7.24125 6.71742 7.0078 6.36383C5.86975 4.92506 5.02351 3.55945 4.46908 2.267L4.27211 1.79148L1.36134 1.77319C1.17166 1.77319 1.06588 1.78233 1.044 1.80062C1.02211 1.81891 1.01117 1.87073 1.01117 1.95608C1.01117 2.06582 1.02576 2.18165 1.05494 2.30358L1.51454 3.32779C2.74013 5.97366 4.07149 8.05865 5.50864 9.58276C6.94579 11.1069 8.35741 11.8689 9.74349 11.8689H11.932C12.0196 11.8689 12.0852 11.8476 12.129 11.8049C12.1728 11.7623 12.2093 11.6799 12.2384 11.558L12.2822 11.3751L12.698 9.76566C12.8148 9.54619 12.9169 9.39987 13.0044 9.32671C13.1649 9.19259 13.3546 9.12553 13.5735 9.12553C13.9236 9.12553 14.2811 9.30233 14.6458 9.65592L16.5061 11.6312C16.6228 11.7897 16.7469 11.8689 16.8782 11.8689H20.4893C20.927 11.8689 21.1459 11.7775 21.1459 11.5946C21.1459 11.5336 21.124 11.4727 21.0802 11.4117L17.9068 8.10132C17.6588 7.84527 17.5347 7.57093 17.5347 7.2783C17.5347 6.98567 17.6515 6.70523 17.8849 6.43699C18.0746 6.19313 18.443 5.78771 18.9901 5.22074C19.5373 4.65377 20.0151 4.12338 20.4236 3.62956C20.8322 3.13575 21.1021 2.68766 21.2334 2.28529L21.299 2.04753C21.2845 2.02314 21.2772 1.98352 21.2772 1.92865C21.2772 1.87378 21.2699 1.82806 21.2553 1.79148H17.8193C17.6004 1.86464 17.4253 1.97437 17.294 2.12069L17.1627 2.46819C16.7979 3.3095 15.8423 4.60805 14.2957 6.36383C13.9893 6.60769 13.6318 6.72962 13.2233 6.72962Z"/>
    </g>
  </symbol>

  <symbol id="ig-icon">
    <g stroke="none">
      <path d="M7.98438 0.0625C9.31771 0.0625 10.4062 0.078125 11.25 0.109375C11.9688 0.140625 12.6094 0.265625 13.1719 0.484375C13.7135 0.692708 14.1823 0.994792 14.5781 1.39062C14.974 1.78646 15.276 2.25521 15.4844 2.79687C15.7031 3.35937 15.8281 4 15.8594 4.71875C15.8906 5.5625 15.9062 6.65104 15.9062 7.98437C15.9062 9.31771 15.8906 10.4062 15.8594 11.25C15.8281 11.9687 15.7031 12.6094 15.4844 13.1719C15.276 13.7135 14.974 14.1823 14.5781 14.5781C14.1823 14.974 13.7135 15.276 13.1719 15.4844C12.6094 15.7031 11.9688 15.8281 11.25 15.8594C10.4062 15.8906 9.31771 15.9062 7.98438 15.9062C6.65104 15.9062 5.5625 15.8906 4.71875 15.8594C4 15.8281 3.35938 15.7031 2.79688 15.4844C2.25521 15.276 1.78646 14.974 1.39062 14.5781C0.994792 14.1823 0.692708 13.7135 0.484375 13.1719C0.265625 12.6094 0.140625 11.9687 0.109375 11.25C0.078125 10.4062 0.0625 9.31771 0.0625 7.98437C0.0625 6.65104 0.078125 5.5625 0.109375 4.71875C0.140625 4 0.265625 3.35937 0.484375 2.79687C0.692708 2.25521 0.994792 1.78646 1.39062 1.39062C1.78646 0.994792 2.25521 0.692708 2.79688 0.484375C3.35938 0.265625 4 0.140625 4.71875 0.109375C5.5625 0.078125 6.65104 0.0625 7.98438 0.0625ZM7.98438 1.09375C6.59896 1.09375 5.46875 1.10937 4.59375 1.14062C4.03125 1.16146 3.51042 1.26042 3.03125 1.4375C2.28125 1.75 1.75 2.28125 1.4375 3.03125C1.26042 3.51042 1.16146 4.03125 1.14062 4.59375C1.10938 5.46875 1.09375 6.59896 1.09375 7.98437C1.09375 9.36979 1.10938 10.5 1.14062 11.375C1.16146 11.9375 1.26042 12.4583 1.4375 12.9375C1.75 13.6875 2.28125 14.2187 3.03125 14.5312C3.51042 14.7083 4.03125 14.8073 4.59375 14.8281C5.46875 14.8594 6.59896 14.875 7.98438 14.875C9.36979 14.875 10.5 14.8594 11.375 14.8281C11.9375 14.8073 12.4583 14.7083 12.9375 14.5312C13.6875 14.2187 14.2188 13.6875 14.5312 12.9375C14.7083 12.4583 14.8073 11.9375 14.8281 11.375C14.8594 10.5 14.875 9.36979 14.875 7.98437C14.875 6.59896 14.8594 5.46875 14.8281 4.59375C14.8073 4.03125 14.7083 3.51042 14.5312 3.03125C14.2188 2.28125 13.6875 1.75 12.9375 1.4375C12.4583 1.26042 11.9375 1.16146 11.375 1.14062C10.5 1.10937 9.36979 1.09375 7.98438 1.09375ZM7.98438 11.1562C8.85938 11.1562 9.60677 10.8464 10.2266 10.2266C10.8464 9.60677 11.1562 8.85937 11.1562 7.98437C11.1562 7.10937 10.8464 6.36198 10.2266 5.74219C9.60677 5.1224 8.85938 4.8125 7.98438 4.8125C7.10938 4.8125 6.36198 5.1224 5.74219 5.74219C5.1224 6.36198 4.8125 7.10937 4.8125 7.98437C4.8125 8.85937 5.1224 9.60677 5.74219 10.2266C6.36198 10.8464 7.10938 11.1562 7.98438 11.1562ZM7.98438 3.92187C9.10938 3.92187 10.0677 4.31771 10.8594 5.10937C11.651 5.90104 12.0469 6.85937 12.0469 7.98437C12.0469 9.10937 11.651 10.0677 10.8594 10.8594C10.0677 11.651 9.10938 12.0469 7.98438 12.0469C6.85938 12.0469 5.90104 11.651 5.10938 10.8594C4.31771 10.0677 3.92188 9.10937 3.92188 7.98437C3.92188 6.85937 4.31771 5.90104 5.10938 5.10937C5.90104 4.31771 6.85938 3.92187 7.98438 3.92187ZM13.1719 3.76562C13.1719 4.02604 13.0781 4.2474 12.8906 4.42969C12.7031 4.61198 12.474 4.70312 12.2031 4.70312C11.9427 4.70312 11.7214 4.61198 11.5391 4.42969C11.3568 4.2474 11.2656 4.02604 11.2656 3.76562C11.2656 3.49479 11.3568 3.26562 11.5391 3.07812C11.7214 2.89062 11.9427 2.79687 12.2031 2.79687C12.4635 2.79687 12.6901 2.89323 12.8828 3.08594C13.0755 3.27865 13.1719 3.50521 13.1719 3.76562Z"/>
    </g>
  </symbol>

  <symbol id="fb-icon">
    <g fill="none">
      <path d="M11.5 0.833252H8.75001C7.53443 0.833252 6.36864 1.30674 5.5091 2.14957C4.64956 2.99239 4.16667 4.1355 4.16667 5.32743V8.02394H1.41667V11.6193H4.16667V18.81H7.83334V11.6193H10.5833L11.5 8.02394H7.83334V5.32743C7.83334 5.08905 7.92992 4.86042 8.10182 4.69186C8.27373 4.52329 8.50689 4.4286 8.75001 4.4286H11.5V0.833252Z" stroke-width="1.1" stroke-linecap="round" stroke-linejoin="round"/>
    </g>
  </symbol>
</svg>
